<?xml version="1.0" encoding="utf-8"?>
<!-- Generator: Adobe Illustrator 19.2.1, SVG Export Plug-In . SVG Version: 6.00 Build 0)  -->
<svg version="1.1" id="Слой_1" xmlns="http://www.w3.org/2000/svg" xmlns:xlink="http://www.w3.org/1999/xlink" x="0px" y="0px"
	 viewBox="0 0 113 39" style="enable-background:new 0 0 113 39;" xml:space="preserve">
<style type="text/css">
	.st0{fill:none;stroke:#000000;stroke-width:2;}
	.st1{fill:#FFFFFF;stroke:#000000;stroke-width:1.4;}
</style>
<path class="st0" d="M5.8,3.4L18.7,2l12.9,1.4v25.4L18.7,37L5.8,28.9V3.4z"/>
<path class="st1" d="M6,15.2l12.3-7.7l13.2,7.7V16l-12.8,8.1L6,16V15.2z"/>
<path d="M18.7,23.3l1.8-1.3l-1.8-1.3v-1.3l3,1.9l1-0.6l-3.9-2.5v-1.5l5,3.3l1-0.6l-6-4v-1.4l8.2,5.4V25l-8.2,5.3l-8.3-5.2v-1.5
	l8.3,5.4v-1.4l-8.3-5.2v-1.3l8.3,5.2V23.3z M47.2,28.1c0.2,0,0.4-0.1,0.5-0.1v1.4c-0.4,0.1-0.8,0.2-1.1,0.2c-0.7,0-1.3-0.3-1.6-1
	c-0.8,0.7-1.7,1.1-3,1.1c-1.5,0-2.8-0.8-2.8-2.6c0-2.2,1.9-2.8,3.5-2.8c0.7,0,1.4,0.1,2,0.3v-0.3c0-1.1-0.7-1.8-2.1-1.8
	c-1,0-2,0.2-2.9,0.7v-1.7c1-0.3,2-0.5,3-0.5c2.2,0,3.7,1.2,3.7,3.7v3C46.5,28,46.9,28.1,47.2,28.1 M41,27c0,0.8,0.7,1.2,1.5,1.2
	c0.8,0,1.6-0.3,2.3-1v-1.4c-0.6-0.1-1.1-0.2-1.7-0.2C42.1,25.6,41,25.9,41,27 M52.8,20.8c0.9,0,1.7,0.2,2.4,0.7v1.7
	c-0.6-0.4-1.4-0.7-2.2-0.7c-1.4,0-2.8,0.8-2.8,2.8c0,1.9,1.4,2.8,2.8,2.8c0.8,0,1.6-0.2,2.3-0.7v1.8c-0.8,0.4-1.6,0.6-2.6,0.6
	c-2.1,0-4.2-1.4-4.2-4.4C48.4,22.1,50.7,20.8,52.8,20.8 M64.2,28.1c0.2,0,0.4-0.1,0.5-0.1v1.4c-0.4,0.1-0.8,0.2-1.1,0.2
	c-0.7,0-1.3-0.3-1.6-1c-0.8,0.7-1.7,1.1-3,1.1c-1.5,0-2.8-0.8-2.8-2.6c0-2.2,1.9-2.8,3.5-2.8c0.7,0,1.4,0.1,2,0.3v-0.3
	c0-1.1-0.7-1.8-2.1-1.8c-1,0-2,0.2-2.9,0.7v-1.7c1-0.3,2-0.5,3-0.5c2.2,0,3.7,1.2,3.7,3.7v3C63.7,28,63.9,28.1,64.2,28.1 M58.1,27
	c0,0.8,0.7,1.2,1.5,1.2c0.8,0,1.6-0.3,2.3-1v-1.4c-0.6-0.1-1.1-0.2-1.7-0.2C59.2,25.6,58.1,25.9,58.1,27 M74,17.1v12.3h-1.6V28
	c-0.6,0.8-1.5,1.6-3,1.6c-2.4,0-3.9-2-3.9-4.5s1.5-4.5,3.9-4.5c1.4,0,2.3,0.7,2.9,1.3v-5H74C74,17,74,17.1,74,17.1z M69.7,22.4
	c-1.4,0-2.5,1.2-2.5,2.8s1,2.8,2.5,2.8c1.1,0,2.1-0.7,2.5-1.8v-2C71.8,23.1,70.8,22.4,69.7,22.4 M79.7,20.8c3.1,0,4.2,2.7,3.7,5.2
	h-6c0.2,1.5,1.6,2.2,3,2.2c0.9,0,1.7-0.2,2.5-0.6v1.6c-0.7,0.3-1.7,0.6-2.9,0.6c-2.4,0-4.5-1.5-4.5-4.5
	C75.7,22.1,77.9,20.8,79.7,20.8 M79.8,22.3c-1.2,0-2.2,0.7-2.3,2.2h4.4C81.9,23.8,81.5,22.3,79.8,22.3 M85.2,29.5V21h1.6v1.1
	c0.4-0.5,1.3-1.3,2.6-1.3c1.2,0,2,0.5,2.5,1.4c0.7-0.7,1.6-1.4,2.8-1.4c2.1,0,3,1.6,3,3.4v5.3h-1.8v-5.2c0-1.1-0.6-1.8-1.6-1.8
	c-0.9,0-1.5,0.6-2,1.2c0,0.2,0.1,0.4,0.1,0.6v5.3h-1.8v-5.2c0-1.1-0.6-1.8-1.6-1.8c-1,0-1.6,0.7-2.1,1.3v5.7L85.2,29.5L85.2,29.5z
	 M105.4,21h1.8l-3.7,9.6c-0.8,2.2-2,2.9-3.2,2.9c-0.4,0-0.7-0.1-1-0.1v-1.6c0.3,0.1,0.5,0.1,0.8,0.1c0.8,0,1.5-0.7,2-2l0.2-0.4
	L98.6,21h1.9l2.7,6.4C103.1,27.4,105.4,21,105.4,21z M41.6,2.3v4.8C42.3,6.4,43.2,6,44.1,6c2,0,3.2,1.4,3.2,3.5v5.2h-1.8v-5
	c0-1.4-0.8-2-1.8-2c-1,0-1.8,0.7-2.2,1.4v5.6h-1.8V2.3H41.6z M52.2,3.2v3H55v1.6h-2.9v3.9c0,1.1,0.5,1.5,1.5,1.5
	c0.6,0,1.1-0.1,1.6-0.3v1.6c-0.7,0.3-1.4,0.4-2.1,0.3c-1.5,0-2.7-0.8-2.7-2.8V7.8h-1.4V6.2h1.4V3.7C50.5,3.7,52.2,3.2,52.2,3.2z
	 M57.3,14.7V6.2h1.6v1.1C59.3,6.8,60.2,6,61.4,6c1.2,0,2,0.5,2.5,1.4C64.6,6.6,65.5,6,66.7,6c2.1,0,3,1.6,3,3.4v5.3h-1.8V9.5
	c0-1.1-0.6-1.8-1.6-1.8c-0.9,0-1.5,0.6-2,1.2c0,0.2,0.1,0.4,0.1,0.6v5.3h-1.8V9.5c0-1.1-0.6-1.8-1.6-1.8c-1,0-1.6,0.7-2.1,1.3v5.7
	C59,14.8,57.3,14.7,57.3,14.7z M72.3,2.3h1.8v12.3h-1.8C72.3,14.6,72.3,2.3,72.3,2.3z"/>
</svg>
